<?xml version="1.0" standalone="no"?>
<!DOCTYPE svg PUBLIC "-//W3C//DTD SVG 20010904//EN"
 "http://www.w3.org/TR/2001/REC-SVG-20010904/DTD/svg10.dtd">
<svg version="1.0" xmlns="http://www.w3.org/2000/svg"
 width="512.000000pt" height="512.000000pt" viewBox="0 0 512.000000 512.000000"
 preserveAspectRatio="xMidYMid meet">

<g transform="translate(0.000000,512.000000) scale(0.100000,-0.100000)"
fill="#000000" stroke="none">
<path d="M1215 4626 c-37 -16 -70 -52 -84 -89 -6 -16 -11 -94 -11 -174 l0
-145 -67 38 c-176 99 -208 113 -254 114 -51 0 -98 -26 -133 -73 -20 -27 -21
-43 -24 -254 l-3 -225 -52 9 c-135 21 -190 7 -241 -61 -21 -27 -21 -31 -24
-1444 -1 -779 0 -1432 3 -1450 7 -39 54 -95 92 -111 16 -6 431 -72 923 -146
l895 -136 360 3 360 4 864 132 c475 73 876 139 891 147 39 20 78 70 85 108 3
18 4 670 3 1449 -3 1413 -3 1417 -24 1444 -51 68 -106 82 -241 61 l-52 -9 -3
225 c-3 251 -4 254 -78 305 -61 41 -106 32 -260 -52 l-135 -74 -5 158 c-4 140
-7 162 -26 186 -49 66 -126 90 -194 61 -24 -9 -195 -183 -530 -535 l-495 -520
-195 0 -195 0 -495 520 c-309 325 -507 526 -527 534 -40 17 -89 17 -128 0z
m260 -585 l30 -33 -32 16 c-22 11 -33 24 -33 38 0 12 1 19 3 17 1 -2 16 -19
32 -38z m2205 20 c0 -11 -15 -28 -37 -41 l-37 -21 35 39 c40 48 39 47 39 23z
m-2438 -276 c70 -38 125 -71 123 -73 -3 -4 -309 41 -377 54 -28 6 -28 6 -28
90 l0 85 78 -43 c43 -24 135 -74 204 -113z m2914 -12 c-6 -6 -387 -64 -397
-61 -4 2 84 53 194 114 l202 112 3 -80 c2 -44 1 -83 -2 -85z m-2788 -390 l712
-107 0 -1223 c0 -673 -3 -1223 -7 -1223 -5 0 -329 48 -720 107 l-713 108 0
1222 c0 673 3 1223 8 1223 4 1 328 -47 720 -107z m3112 -1116 l0 -1223 -712
-107 c-392 -60 -716 -108 -720 -107 -5 0 -8 550 -8 1223 l0 1223 693 106 c380
58 704 106 720 107 l27 1 0 -1223z m-1760 -242 l0 -1225 -160 0 -160 0 0 1225
0 1225 160 0 160 0 0 -1225z"/>
<path d="M3701 3099 c-424 -71 -431 -73 -475 -133 -20 -26 -21 -43 -24 -264
-2 -150 1 -250 7 -274 14 -45 69 -95 116 -104 48 -9 877 129 919 154 17 9 41
38 54 62 22 44 23 52 20 287 -3 227 -4 243 -24 270 -37 50 -81 73 -138 72 -28
-1 -233 -32 -455 -70z m299 -314 c0 -28 -4 -36 -22 -40 -26 -5 -443 -75 -452
-75 -3 0 -6 17 -6 38 l0 37 218 36 c281 47 262 47 262 4z"/>
</g>
</svg>
