<?xml version="1.0" standalone="no"?>
<!DOCTYPE svg PUBLIC "-//W3C//DTD SVG 20010904//EN"
 "http://www.w3.org/TR/2001/REC-SVG-20010904/DTD/svg10.dtd">
<svg version="1.0" xmlns="http://www.w3.org/2000/svg"
 width="512.000000pt" height="512.000000pt" viewBox="0 0 512.000000 512.000000"
 preserveAspectRatio="xMidYMid meet">

<g transform="translate(0.000000,512.000000) scale(0.100000,-0.100000)"
fill="#000000" stroke="none">
<path d="M1055 4786 c-73 -33 -95 -83 -95 -212 l0 -94 -108 0 c-65 0 -131 -6
-167 -15 -172 -45 -305 -179 -350 -352 -23 -86 -23 -3340 0 -3426 45 -173 178
-307 350 -352 52 -13 228 -15 1395 -15 1470 0 1390 -3 1511 61 70 38 157 126
193 197 57 112 56 100 56 942 l0 775 461 460 c253 253 469 477 480 497 23 44
24 87 5 131 -18 41 -412 433 -449 447 -40 14 -83 12 -120 -6 -18 -9 -110 -93
-204 -187 l-173 -172 0 296 c0 319 -5 360 -56 461 -36 71 -123 159 -193 197
-84 45 -159 61 -282 61 l-107 0 -4 109 c-3 118 -12 141 -72 185 -39 29 -133
29 -172 0 -60 -44 -69 -67 -72 -185 l-4 -109 -158 0 -158 0 -4 109 c-3 118
-12 141 -72 185 -39 29 -133 29 -172 0 -60 -44 -69 -67 -72 -185 l-4 -109
-158 0 -158 0 -4 109 c-3 118 -12 141 -72 185 -39 29 -133 29 -172 0 -60 -44
-69 -67 -72 -185 l-4 -109 -158 0 -158 0 -4 109 c-3 118 -12 141 -70 184 -34
25 -113 32 -153 13z m-93 -735 c3 -118 12 -141 72 -185 39 -29 133 -29 172 0
60 44 69 67 72 185 l4 109 158 0 158 0 4 -109 c2 -92 6 -114 24 -137 39 -53
71 -69 134 -69 63 0 95 16 134 69 18 23 22 45 24 137 l4 109 158 0 158 0 4
-109 c3 -118 12 -141 72 -185 39 -29 133 -29 172 0 60 44 69 67 72 185 l4 109
158 0 158 0 4 -109 c2 -92 6 -114 24 -137 39 -53 71 -69 134 -69 63 0 95 16
134 69 18 23 22 45 24 138 l4 110 108 -4 c117 -3 140 -12 184 -72 20 -27 21
-41 24 -484 l3 -456 -755 -756 c-415 -415 -761 -768 -769 -785 -21 -43 -81
-476 -72 -522 9 -49 69 -109 118 -118 46 -9 479 51 522 72 17 8 238 223 493
476 l462 462 -2 -617 c-3 -605 -3 -617 -24 -644 -11 -15 -33 -37 -48 -48 -27
-21 -30 -21 -1366 -21 -1336 0 -1339 0 -1366 21 -15 11 -37 33 -48 48 -21 27
-21 29 -24 1659 -1 898 0 1646 3 1664 7 40 49 91 90 109 18 8 69 13 127 14
l96 0 4 -109z m3388 -666 l64 -65 -64 -65 -64 -65 -68 67 -68 67 62 63 c34 35
65 63 68 63 3 0 35 -29 70 -65z m-357 -353 c31 -32 57 -62 57 -67 0 -6 -366
-376 -812 -822 l-813 -812 -73 -12 c-41 -6 -76 -9 -78 -6 -3 2 0 38 6 78 l12
74 811 813 c447 446 817 812 822 812 6 0 36 -26 68 -58z"/>
<path d="M1586 3349 c-62 -15 -153 -68 -197 -116 -22 -24 -55 -74 -72 -111
-29 -61 -32 -76 -32 -163 0 -90 2 -99 37 -171 45 -91 103 -147 196 -191 l67
-32 228 -5 c226 -5 229 -5 248 -29 24 -30 24 -72 0 -102 l-19 -24 -410 -5
c-395 -5 -412 -6 -438 -26 -15 -11 -37 -33 -48 -48 -21 -27 -21 -38 -21 -566
0 -528 0 -539 21 -566 51 -68 53 -69 294 -69 241 0 243 1 294 69 29 39 29 133
0 172 -44 60 -67 69 -185 72 l-109 4 0 318 0 319 328 3 327 3 67 32 c93 44
151 100 196 191 35 72 37 81 37 172 0 91 -2 100 -37 172 -45 91 -103 147 -196
191 l-67 32 -228 5 c-226 5 -229 5 -248 29 -24 30 -24 72 0 102 l19 24 570 5
c557 5 571 6 598 26 53 39 69 71 69 134 0 63 -16 95 -69 134 -27 21 -39 21
-604 23 -324 1 -594 -3 -616 -8z"/>
</g>
</svg>
