<?xml version="1.0" standalone="no"?>
<!DOCTYPE svg PUBLIC "-//W3C//DTD SVG 20010904//EN"
 "http://www.w3.org/TR/2001/REC-SVG-20010904/DTD/svg10.dtd">
<svg version="1.0" xmlns="http://www.w3.org/2000/svg"
 width="512.000000pt" height="512.000000pt" viewBox="0 0 512.000000 512.000000"
 preserveAspectRatio="xMidYMid meet">

<g transform="translate(0.000000,512.000000) scale(0.100000,-0.100000)"
fill="#000000" stroke="none">
<path d="M1540 5109 c-739 -84 -1344 -630 -1499 -1354 -86 -401 -29 -819 160
-1174 248 -465 670 -779 1199 -892 90 -20 136 -23 325 -23 192 -1 235 2 335
22 113 23 283 77 388 123 l53 23 126 -126 125 -125 -38 -78 c-34 -69 -39 -87
-42 -171 -7 -154 40 -270 149 -368 88 -79 220 -125 331 -113 l53 5 355 -353
c210 -209 378 -367 411 -388 66 -42 153 -79 229 -98 79 -20 278 -17 360 5 258
70 466 278 536 536 22 82 25 281 5 359 -20 78 -57 166 -98 230 -21 33 -177
199 -388 411 l-353 355 5 53 c12 111 -34 243 -113 331 -98 109 -214 156 -367
149 -82 -3 -101 -8 -171 -42 l-79 -38 -126 126 -125 125 23 53 c46 105 100
275 123 388 20 100 23 143 22 335 0 249 -13 334 -84 546 -190 571 -675 1008
-1265 1138 -177 39 -387 50 -565 30z m475 -338 c562 -123 974 -535 1100 -1101
9 -42 19 -144 22 -230 7 -191 -11 -323 -67 -491 -75 -228 -169 -379 -345 -554
-175 -176 -326 -270 -554 -345 -168 -56 -300 -74 -491 -67 -215 8 -374 46
-556 133 -506 241 -826 773 -801 1329 32 697 538 1248 1237 1345 102 14 351 4
455 -19z m1197 -2538 l98 -98 -162 -162 -163 -163 -97 97 c-54 54 -98 100 -98
104 0 3 38 38 84 78 47 40 117 110 157 157 40 46 75 84 78 84 3 0 50 -44 103
-97z m679 -126 c22 -14 39 -38 48 -64 29 -81 28 -82 -381 -490 -327 -326 -378
-372 -411 -378 -109 -20 -194 96 -143 193 16 30 720 734 751 751 35 18 99 13
136 -12z m521 -795 c346 -346 358 -362 381 -498 48 -278 -210 -535 -489 -487
-131 23 -150 37 -499 384 l-320 319 300 300 c165 165 302 300 305 300 3 0 148
-143 322 -318z"/>
</g>
</svg>
