<?xml version="1.0" standalone="no"?>
<!DOCTYPE svg PUBLIC "-//W3C//DTD SVG 20010904//EN"
 "http://www.w3.org/TR/2001/REC-SVG-20010904/DTD/svg10.dtd">
<svg version="1.0" xmlns="http://www.w3.org/2000/svg"
 width="512.000000pt" height="512.000000pt" viewBox="0 0 512.000000 512.000000"
 preserveAspectRatio="xMidYMid meet">

<g transform="translate(0.000000,512.000000) scale(0.100000,-0.100000)"
fill="#000000" stroke="none">
<path d="M681 4464 c-169 -45 -301 -180 -346 -351 -23 -86 -23 -3020 0 -3106
45 -173 178 -307 350 -352 52 -13 277 -15 1875 -15 1980 0 1865 -3 1982 56 71
36 159 123 197 193 65 122 61 25 61 1671 0 1311 -2 1503 -15 1555 -45 172
-179 305 -352 350 -85 22 -3669 21 -3752 -1z m3725 -330 c15 -11 37 -33 48
-48 20 -26 21 -43 24 -297 l3 -269 -916 0 -916 0 -47 75 c-96 154 -128 199
-155 219 -28 21 -39 21 -645 24 -405 2 -629 -1 -653 -7 -47 -14 -66 -36 -157
-182 l-78 -124 -137 -3 -137 -3 0 255 c0 264 4 292 43 335 49 53 -55 50 1889
48 l1807 -2 27 -21z m-2051 -748 c45 -71 96 -141 115 -155 l33 -26 989 -3 988
-2 -2 -1069 c-3 -1063 -3 -1070 -24 -1097 -11 -15 -33 -37 -48 -48 l-27 -21
-1819 0 -1819 0 -27 21 c-15 11 -37 33 -48 48 -21 27 -21 34 -24 1096 l-2
1069 209 3 c194 3 212 5 238 24 27 20 59 65 155 219 l48 75 492 -2 492 -3 81
-129z"/>
</g>
</svg>
