<?xml version="1.0" standalone="no"?>
<!DOCTYPE svg PUBLIC "-//W3C//DTD SVG 20010904//EN"
 "http://www.w3.org/TR/2001/REC-SVG-20010904/DTD/svg10.dtd">
<svg version="1.0" xmlns="http://www.w3.org/2000/svg"
 width="512.000000pt" height="512.000000pt" viewBox="0 0 512.000000 512.000000"
 preserveAspectRatio="xMidYMid meet">

<g transform="translate(0.000000,512.000000) scale(0.100000,-0.100000)"
fill="#000000" stroke="none">
<path d="M2444 4625 c-47 -13 -2082 -903 -2196 -961 -109 -55 -202 -171 -233
-289 -56 -218 47 -433 260 -536 l85 -41 0 -866 0 -867 -48 -41 c-97 -84 -136
-217 -97 -333 22 -69 98 -151 167 -182 80 -35 193 -34 270 4 111 55 172 152
172 277 0 66 -4 82 -34 139 -22 40 -50 75 -77 95 l-42 31 -1 804 c0 742 1 803
16 797 110 -42 434 -192 434 -201 0 -7 -70 -216 -155 -466 -86 -250 -161 -484
-167 -521 -40 -227 130 -463 369 -513 100 -21 2685 -22 2784 -1 244 52 412
289 370 521 -6 33 -81 264 -166 514 -85 250 -155 459 -155 465 0 7 199 99 442
206 475 209 526 238 591 331 162 236 84 550 -169 677 -138 69 -2140 944 -2192
957 -69 18 -160 18 -228 0z m1221 -764 c578 -255 1060 -469 1073 -477 39 -25
62 -74 62 -132 0 -102 57 -72 -1136 -596 -860 -378 -1068 -466 -1103 -466 -43
0 -82 17 -1646 705 -121 53 -287 126 -370 161 -187 81 -225 114 -225 196 0 58
23 107 62 132 16 10 1722 764 2123 937 55 24 101 6 1160 -460z m-1748 -1745
c268 -118 508 -220 533 -225 64 -15 167 -13 230 3 30 8 270 109 533 225 264
116 482 211 487 211 13 0 310 -892 310 -931 0 -41 -30 -91 -73 -123 l-28 -21
-1349 0 -1349 0 -28 21 c-43 32 -73 82 -73 123 0 40 297 931 311 931 5 0 228
-97 496 -214z"/>
</g>
</svg>
