<?xml version="1.0" standalone="no"?>
<!DOCTYPE svg PUBLIC "-//W3C//DTD SVG 20010904//EN"
 "http://www.w3.org/TR/2001/REC-SVG-20010904/DTD/svg10.dtd">
<svg version="1.0" xmlns="http://www.w3.org/2000/svg"
 width="512.000000pt" height="512.000000pt" viewBox="0 0 512.000000 512.000000"
 preserveAspectRatio="xMidYMid meet">

<g transform="translate(0.000000,512.000000) scale(0.100000,-0.100000)"
fill="#000000" stroke="none">
<path d="M2066 4789 c-62 -15 -153 -68 -197 -116 -22 -24 -55 -74 -72 -111
-29 -61 -32 -76 -32 -162 0 -86 3 -101 32 -162 17 -37 52 -89 77 -116 l46 -49
0 -345 0 -344 -34 -12 c-19 -7 -82 -41 -141 -77 -399 -239 -664 -617 -757
-1077 -32 -160 -32 -433 0 -593 130 -655 621 -1146 1275 -1277 160 -32 434
-32 593 0 662 132 1158 634 1280 1297 28 149 26 422 -4 571 -56 282 -169 518
-351 736 -134 160 -325 311 -500 395 l-80 38 0 344 -1 344 46 49 c25 27 60 79
77 116 29 61 32 76 32 162 0 86 -3 101 -32 162 -44 93 -100 151 -191 196 l-76
37 -475 2 c-268 1 -493 -3 -515 -8z m949 -334 c16 -15 25 -36 25 -55 0 -19 -9
-40 -25 -55 l-24 -25 -431 0 -431 0 -24 25 c-16 15 -25 36 -25 55 0 19 9 40
25 55 l24 25 431 0 431 0 24 -25z m-135 -830 c0 -403 2 -416 51 -462 14 -12
58 -36 99 -53 411 -169 693 -507 786 -940 26 -119 26 -381 0 -500 -35 -162
-104 -329 -189 -455 -56 -83 -77 -108 -170 -203 -170 -172 -395 -294 -647
-348 -126 -27 -392 -25 -516 4 -511 120 -881 494 -990 1002 -26 119 -26 381 0
500 56 257 179 483 362 662 129 127 260 212 433 282 36 14 76 36 89 49 51 46
52 59 52 462 l0 375 320 0 320 0 0 -375z"/>
<path d="M1695 2066 c-42 -18 -83 -69 -91 -112 -16 -89 18 -280 75 -413 170
-400 613 -642 1037 -567 450 78 791 463 797 898 2 116 -5 137 -67 182 -27 21
-36 21 -874 23 -689 2 -853 0 -877 -11z m1480 -328 c-4 -13 -25 -61 -48 -108
-101 -207 -330 -349 -564 -350 -177 0 -363 83 -482 216 -45 51 -118 181 -136
242 l-6 22 621 0 621 0 -6 -22z"/>
</g>
</svg>
