<?xml version="1.0" standalone="no"?>
<!DOCTYPE svg PUBLIC "-//W3C//DTD SVG 20010904//EN"
 "http://www.w3.org/TR/2001/REC-SVG-20010904/DTD/svg10.dtd">
<svg version="1.0" xmlns="http://www.w3.org/2000/svg"
 width="512.000000pt" height="512.000000pt" viewBox="0 0 512.000000 512.000000"
 preserveAspectRatio="xMidYMid meet">

<g transform="translate(0.000000,512.000000) scale(0.100000,-0.100000)"
fill="#000000" stroke="none">
<path d="M974 4260 c-140 -21 -289 -102 -383 -207 -62 -70 -126 -189 -146
-274 -13 -55 -15 -225 -15 -1219 0 -1288 -3 -1218 70 -1360 97 -185 267 -306
480 -340 89 -14 3071 -14 3160 0 154 25 292 98 390 208 58 65 133 209 149 290
15 74 15 2330 0 2404 -16 81 -91 225 -149 290 -68 77 -182 151 -283 185 l-82
28 -1570 1 c-863 1 -1593 -2 -1621 -6z m1897 -448 c39 -20 62 -41 84 -77 l30
-48 0 -371 0 -371 -245 0 -244 0 -66 117 c-121 217 -126 220 -351 226 l-157 4
-68 125 c-77 139 -119 184 -190 202 -85 22 -182 -17 -232 -91 -23 -35 -27 -52
-27 -112 0 -70 1 -73 76 -208 l77 -137 -37 -63 -37 -63 -63 0 -63 0 -70 125
c-110 198 -129 211 -316 218 l-124 5 4 197 3 197 30 48 c22 36 45 57 84 77
l53 28 898 0 898 0 53 -28z m653 -6 c29 -17 55 -44 73 -74 l28 -47 0 -1125 0
-1125 -28 -47 c-34 -58 -99 -99 -168 -106 -27 -2 -49 -2 -49 1 0 3 7 32 15 64
23 86 23 2340 0 2426 -8 32 -15 61 -15 64 0 15 103 -7 144 -31z m640 0 c29
-17 55 -44 73 -74 l28 -47 0 -1125 0 -1125 -28 -47 c-34 -58 -99 -99 -168
-106 -27 -2 -49 -2 -49 1 0 3 7 32 15 64 23 86 23 2340 0 2426 -8 32 -15 61
-15 64 0 15 103 -7 144 -31z m-3176 -1073 c112 -202 129 -213 350 -213 l148 0
35 -65 34 -65 -34 -65 -35 -65 -148 0 c-162 0 -199 -8 -252 -58 -109 -102 -75
-289 64 -350 24 -10 84 -17 188 -21 l154 -6 72 -130 c61 -109 80 -135 119
-162 60 -41 101 -45 352 -41 270 4 274 6 387 210 l70 128 250 0 250 0 -4 -198
-3 -199 -30 -48 c-22 -36 -45 -57 -84 -77 l-53 -28 -898 0 -898 0 -53 28 c-39
20 -62 41 -84 77 l-30 48 -3 714 -3 713 35 0 c33 0 35 -3 104 -127z m1103 62
l34 -65 -35 -65 -35 -65 -61 0 c-68 0 -67 0 -110 78 l-28 54 28 51 c43 77 42
77 110 77 l62 0 35 -65z m897 -407 l3 -128 -248 0 -248 0 -35 65 -35 65 29 52
c16 29 33 59 39 66 7 9 65 12 251 10 l241 -3 3 -127z m-931 -220 c6 -7 23 -37
39 -66 l29 -52 -34 -65 -35 -65 -65 0 -66 0 -34 63 -33 64 22 44 c45 88 47 89
110 89 34 0 62 -5 67 -12z"/>
</g>
</svg>
