<?xml version="1.0" standalone="no"?>
<!DOCTYPE svg PUBLIC "-//W3C//DTD SVG 20010904//EN"
 "http://www.w3.org/TR/2001/REC-SVG-20010904/DTD/svg10.dtd">
<svg version="1.0" xmlns="http://www.w3.org/2000/svg"
 width="512.000000pt" height="512.000000pt" viewBox="0 0 512.000000 512.000000"
 preserveAspectRatio="xMidYMid meet">

<g transform="translate(0.000000,512.000000) scale(0.100000,-0.100000)"
fill="#000000" stroke="none">
<path d="M2439 4777 c-184 -63 -338 -271 -455 -613 -21 -60 -38 -110 -40 -112
-1 -2 -39 15 -84 38 -112 56 -263 114 -368 142 -123 31 -293 31 -375 -1 -108
-43 -185 -120 -228 -228 -33 -83 -33 -252 0 -377 26 -100 89 -264 145 -375 21
-40 36 -74 34 -75 -2 -2 -52 -19 -112 -40 -346 -118 -559 -278 -616 -463 -86
-279 133 -524 616 -689 60 -21 110 -38 112 -40 2 -1 -13 -35 -34 -75 -96 -192
-159 -390 -170 -534 -19 -252 114 -432 346 -468 148 -23 376 32 619 149 63 30
115 53 116 52 1 -2 18 -52 39 -112 163 -477 412 -702 683 -618 192 60 350 268
469 618 21 60 38 110 39 112 1 1 54 -23 118 -53 248 -118 469 -171 617 -148
190 30 313 154 343 345 23 146 -31 369 -148 615 -30 64 -54 117 -53 118 2 1
53 19 113 39 347 118 557 278 617 469 84 271 -143 522 -617 683 -60 20 -111
38 -113 39 -1 1 23 54 53 118 118 248 171 469 148 617 -36 232 -216 365 -468
346 -144 -11 -342 -74 -534 -170 -40 -21 -74 -36 -75 -34 -2 2 -19 52 -40 112
-118 346 -278 559 -463 616 -84 26 -152 25 -234 -3z m164 -316 c72 -47 171
-224 235 -418 61 -184 62 -165 -10 -214 -35 -23 -109 -78 -166 -121 l-104 -79
-46 39 c-50 41 -157 118 -235 171 -55 37 -55 24 5 204 64 194 158 363 232 415
37 27 53 27 89 3z m-1106 -566 c116 -39 363 -160 363 -178 1 -11 -47 -324 -56
-374 -3 -14 -13 -24 -27 -27 -52 -10 -355 -56 -369 -56 -11 0 -39 45 -82 130
-141 275 -185 505 -104 540 41 18 164 2 275 -35z m2421 21 c13 -13 17 -34 16
-99 -1 -66 -8 -103 -37 -190 -43 -127 -162 -367 -183 -367 -7 0 -82 11 -166
25 -84 14 -164 25 -178 25 -14 0 -31 4 -39 9 -12 8 -38 148 -67 362 l-6 45
128 66 c203 104 349 150 457 145 38 -2 63 -9 75 -21z m-1643 -471 l30 -25 -37
-35 c-33 -30 -44 -35 -88 -35 -27 0 -50 3 -50 6 0 13 22 150 26 162 4 13 46
-12 119 -73z m699 23 c4 -29 9 -68 12 -85 l6 -33 -51 0 c-42 0 -56 5 -86 31
-19 17 -35 35 -35 39 0 11 133 109 141 104 4 -2 9 -27 13 -56z m-299 -443
c256 -67 415 -329 350 -578 -67 -258 -329 -417 -578 -352 -257 67 -417 329
-352 578 67 258 329 417 580 352z m-905 -85 c0 -41 -5 -55 -31 -85 -17 -19
-35 -35 -39 -35 -9 0 -105 127 -105 138 0 4 32 12 70 18 112 18 105 21 105
-36z m1713 31 c21 -3 38 -10 38 -16 -1 -14 -91 -135 -101 -135 -4 0 -22 16
-39 35 -26 30 -31 44 -31 86 l0 50 48 -7 c26 -3 64 -9 85 -13z m-2192 -143
c23 -35 77 -109 120 -165 l78 -102 -78 -103 c-42 -57 -96 -131 -120 -166 -49
-72 -30 -71 -215 -10 -227 75 -413 189 -433 266 -18 75 176 205 434 291 106
35 143 46 165 50 4 0 26 -27 49 -61z m2754 10 c217 -72 413 -192 431 -265 19
-75 -177 -207 -431 -291 -186 -61 -167 -62 -216 10 -23 35 -77 109 -120 166
l-78 102 78 103 c43 56 97 130 120 165 49 72 30 71 216 10z m-2306 -573 c26
-30 31 -44 31 -86 l0 -50 -47 7 c-105 15 -125 19 -124 29 1 14 91 135 101 135
4 0 22 -16 39 -35z m1735 -27 c26 -35 47 -67 47 -73 1 -10 -19 -14 -123 -29
l-48 -7 0 50 c0 42 5 56 31 86 17 19 35 35 39 35 5 0 29 -28 54 -62z m-1835
-412 c159 -24 171 -29 171 -76 0 -14 11 -92 25 -174 14 -83 25 -158 25 -167 0
-24 -226 -138 -367 -186 -87 -29 -124 -36 -190 -37 -110 -1 -118 7 -117 117 1
106 47 246 140 429 l67 130 46 -6 c25 -3 115 -17 200 -30z m2155 -96 c93 -181
139 -322 140 -427 1 -110 -7 -118 -117 -117 -106 1 -250 49 -430 141 l-129 67
6 45 c28 207 55 354 66 361 8 5 43 11 79 15 36 4 111 15 166 25 164 29 144 39
219 -110z m-1529 9 c19 -17 35 -35 35 -39 0 -9 -127 -105 -138 -105 -6 0 -12
28 -26 128 l-7 47 50 0 c42 0 56 -5 86 -31z m719 -16 c-14 -104 -20 -128 -28
-127 -14 2 -136 95 -136 104 0 4 16 22 35 39 30 26 44 31 86 31 l50 0 -7 -47z
m-322 -311 c57 -43 131 -98 166 -121 72 -49 71 -30 10 -215 -75 -227 -189
-413 -266 -433 -75 -18 -205 176 -290 434 -62 186 -66 162 35 232 49 33 122
87 163 120 41 33 76 60 77 60 1 1 48 -34 105 -77z"/>
</g>
</svg>
